<svg width="21" height="21" viewBox="0 0 21 21" fill="none" xmlns="http://www.w3.org/2000/svg">
<g clip-path="url(#clip0_951_1445)">
<path d="M15.0938 15.0938V17.0625H5.57812C4.79491 17.0625 4.04377 16.7514 3.48995 16.1975C2.93613 15.6437 2.625 14.8926 2.625 14.1094C2.625 13.3262 2.93613 12.575 3.48995 12.0212C4.04377 11.4674 4.79491 11.1562 5.57812 11.1562H5.90625V9.84375H5.57812C4.44681 9.84375 3.36183 10.2932 2.56187 11.0931C1.76191 11.8931 1.3125 12.9781 1.3125 14.1094C1.3125 15.2407 1.76191 16.3257 2.56187 17.1256C3.36183 17.9256 4.44681 18.375 5.57812 18.375H15.0938V20.3438H20.3438V15.0938H15.0938ZM19.0312 19.0312H16.4062V16.4062H19.0312V19.0312Z" fill="#2E5A75"/>
<path d="M13.7812 14.4375H12.4688V12.4688H8.53125V14.4375H7.21875V12.4688C7.2191 12.1208 7.35749 11.7871 7.60356 11.5411C7.84962 11.295 8.18326 11.1566 8.53125 11.1563H12.4688C12.8167 11.1566 13.1504 11.295 13.3964 11.5411C13.6425 11.7871 13.7809 12.1208 13.7812 12.4688V14.4375ZM10.5 10.5C10.1106 10.5 9.72998 10.3845 9.40622 10.1682C9.08246 9.95188 8.83012 9.6444 8.68111 9.28466C8.5321 8.92492 8.49311 8.52907 8.56908 8.14717C8.64504 7.76527 8.83255 7.41447 9.10788 7.13913C9.38322 6.8638 9.73402 6.67629 10.1159 6.60033C10.4978 6.52437 10.8937 6.56335 11.2534 6.71236C11.6132 6.86137 11.9206 7.11371 12.137 7.43747C12.3533 7.76123 12.4688 8.14187 12.4688 8.53125C12.4682 9.05324 12.2606 9.55369 11.8915 9.92279C11.5224 10.2919 11.022 10.4995 10.5 10.5ZM10.5 7.875C10.3702 7.875 10.2433 7.91349 10.1354 7.9856C10.0275 8.05771 9.94337 8.1602 9.8937 8.28012C9.84403 8.40003 9.83104 8.53198 9.85636 8.65928C9.88168 8.78658 9.94418 8.90351 10.036 8.99529C10.1277 9.08707 10.2447 9.14957 10.372 9.17489C10.4993 9.20021 10.6312 9.18722 10.7511 9.13755C10.871 9.08788 10.9735 9.00376 11.0457 8.89584C11.1178 8.78792 11.1562 8.66105 11.1562 8.53125C11.1561 8.35726 11.0869 8.19044 10.9638 8.0674C10.8408 7.94437 10.674 7.87517 10.5 7.875Z" fill="#2E5A75"/>
<path d="M15.4219 2.625H5.90625V0.65625H0.65625V5.90625H5.90625V3.9375H15.4219C16.2051 3.9375 16.9562 4.24863 17.51 4.80245C18.0639 5.35627 18.375 6.10741 18.375 6.89062C18.375 7.67384 18.0639 8.42498 17.51 8.9788C16.9562 9.53262 16.2051 9.84375 15.4219 9.84375H15.0938V11.1562H15.4219C16.5532 11.1562 17.6382 10.7068 18.4381 9.90688C19.2381 9.10692 19.6875 8.02194 19.6875 6.89062C19.6875 5.75931 19.2381 4.67433 18.4381 3.87437C17.6382 3.07441 16.5532 2.625 15.4219 2.625ZM4.59375 4.59375H1.96875V1.96875H4.59375V4.59375Z" fill="#2E5A75"/>
</g>
<defs>
<clipPath id="clip0_951_1445">
<rect width="21" height="21" fill="white"/>
</clipPath>
</defs>
</svg>
